<?xml version="1.0" encoding="UTF-8"?>
<svg id="Calque_1" data-name="Calque 1" xmlns="http://www.w3.org/2000/svg" viewBox="0 0 99.21 99.21">
  <defs>
    <style>
      .cls-1 {
        fill: #6366f1;
        stroke-width: 0px;
      }
    </style>
  </defs>
  <path class="cls-1" d="M51.97,87.78h26.04v-6.99c-.01-2.46-.94-4.79-2.66-6.56l-10.07-9.37-10.53,9.56c-1.76,1.65-2.78,3.98-2.78,6.4v6.97Z"/>
  <path class="cls-1" d="M39.97,62.53c-1.6,1.6-2.52,3.79-2.52,6.06v19.19h12.36v-6.97c0-3.02,1.27-5.93,3.49-7.99l10.41-9.45-12.65-11.77-11.09,10.94Z"/>
  <path class="cls-1" d="M25.42,50.54c-1.65,1.6-2.61,3.83-2.61,6.13v31.11h12.46v-19.19c0-2.84,1.16-5.61,3.18-7.6l11.02-10.87-11.99-11.17-12.06,11.6Z"/>
  <path class="cls-1" d="M86.91,10.08H14c-1.32,0-2.4,1.07-2.4,2.4v72.9c0,1.32,1.07,2.4,2.4,2.4h6.64v-31.11c0-2.88,1.2-5.69,3.27-7.68l11.96-11.51-11.13-10.38c-.87.57-1.9.9-3.02.9-3.06,0-5.54-2.48-5.54-5.54s2.48-5.53,5.54-5.53,5.53,2.47,5.53,5.53c0,1.16-.35,2.22-.96,3.12l11.15,10.38,10.72-10.31c-.64-.9-1.01-2.01-1.01-3.19,0-3.06,2.48-5.53,5.54-5.53s5.53,2.47,5.53,5.53-2.47,5.54-5.53,5.54c-1.08,0-2.09-.31-2.95-.85l-10.71,10.3,11.96,11.15,9.3-9.17c-.52-.83-.82-1.81-.82-2.88,0-3.06,2.47-5.54,5.53-5.54s5.54,2.48,5.54,5.54-2.48,5.53-5.54,5.53c-1.21,0-2.33-.4-3.25-1.06l-9.18,9.06,12.72,11.84,8.76-7.97c2.55-2.36,4.01-5.72,4.01-9.2v-16.86c-2.54-.5-4.45-2.74-4.45-5.43,0-3.06,2.48-5.53,5.54-5.53s5.53,2.47,5.53,5.53c0,2.69-1.91,4.94-4.45,5.43v16.86c0,4.08-1.71,8.01-4.71,10.79l-8.65,7.84,9.99,9.3c2.14,2.21,3.29,5.08,3.3,8.1v6.99h6.72c1.32,0,2.4-1.07,2.4-2.4V12.48c0-1.32-1.07-2.4-2.4-2.4Z"/>
</svg>